<?xml version="1.0" encoding="iso-8859-1"?>
<!-- Generator: Adobe Illustrator 19.0.0, SVG Export Plug-In . SVG Version: 6.00 Build 0)  -->
<svg version="1.1" id="Layer_1" xmlns="http://www.w3.org/2000/svg" xmlns:xlink="http://www.w3.org/1999/xlink" x="0px" y="0px"
	 viewBox="0 0 436.004 436.004" style="enable-background:new 0 0 436.004 436.004;" xml:space="preserve">
<g>
	<g>
		<path d="M242.002,300v28c0,13.236-10.764,24-24,24c-13.236,0-24-10.764-24-24v-28h-24v28c0,26.468,21.532,48,48,48
			s48-21.532,48-48v-28H242.002z"/>
	</g>
</g>
<g>
	<g>
		<path d="M373.998,157.832c-0.056-3.904-0.108-7.532-0.564-10.672l0.156-0.008C367.986,64.636,298.762,0,216.002,0
			S64.022,64.636,58.414,147.152l0.16,0.008c-0.464,3.176-0.516,6.86-0.572,10.84v178h12c39.216,0,71.18-11.928,95.012-35.46
			l-16.864-17.08c-16.772,16.564-38.984,25.984-66.148,28.088V158.164c0.028-2.008,0.076-4.332,0.132-6.092l0.224-3.296
			C87.114,78.808,145.818,24,216.002,24c70.188,0,128.892,54.808,133.644,124.78l0.224,3.304c0.056,1.74,0.104,4.012,0.132,5.916
			v153.552c-27.164-2.108-49.372-11.524-66.144-28.084l-16.864,17.076C290.826,324.072,322.79,336,362.002,336h12L373.998,157.832z"
			/>
	</g>
</g>
<g>
	<g>
		<path d="M325.802,142c-22.5-12.148-43.528-33.176-62.076-51.716c-1.596-1.596-3.844-2.408-6.04-2.336
			c-2.256,0.108-4.36,1.164-5.792,2.904c-40.916,49.688-99.896,61.844-142.164,63.288c-4.312,0.148-7.728,3.684-7.728,7.996v38.444
			c0,62.86,51.14,114,114,114s114-51.144,114-114v-51.54C330.002,146.096,328.386,143.396,325.802,142z M314.002,200.576
			c0,54.04-43.964,98-98,98s-98-43.96-98-98v-30.82c42.828-2.66,98.756-16.168,140.496-62.092
			c16.664,16.564,35.152,34.124,55.504,46.052V200.576z"/>
	</g>
</g>
<g>
	<g>
		<circle cx="162.002" cy="200" r="12"/>
	</g>
</g>
<g>
	<g>
		<circle cx="274.002" cy="200" r="12"/>
	</g>
</g>
<g>
	<g>
		<path d="M186.002,240c0,16.572,13.432,32,30,32s30-15.428,30-32H186.002z"/>
	</g>
</g>
<g>
	<g>
		<path d="M179.266,331.98c-1.028-0.068-101.8-3.284-136.476,87.748c-2.36,6.196,0.748,13.128,6.94,15.488
			c1.404,0.536,2.848,0.788,4.268,0.788c4.836,0,9.396-2.944,11.216-7.732c28.44-74.656,109.58-72.424,113.052-72.316
			c6.532,0.352,12.192-4.86,12.476-11.476C191.022,337.86,185.886,332.26,179.266,331.98z"/>
	</g>
</g>
<g>
	<g>
		<path d="M393.214,419.724c-34.68-91.036-133.496-87.832-134.484-87.776c-6.62,0.284-11.756,5.888-11.468,12.508
			c0.288,6.624,5.988,11.812,12.508,11.468c0.832-0.04,82.432-2.684,111.016,72.348c1.824,4.788,6.38,7.732,11.216,7.732
			c1.42,0,2.864-0.252,4.272-0.792C392.466,432.852,395.574,425.92,393.214,419.724z"/>
	</g>
</g>
<g>
</g>
<g>
</g>
<g>
</g>
<g>
</g>
<g>
</g>
<g>
</g>
<g>
</g>
<g>
</g>
<g>
</g>
<g>
</g>
<g>
</g>
<g>
</g>
<g>
</g>
<g>
</g>
<g>
</g>
</svg>
